HIERARCHY
ROOT hip
{
  OFFSET 0 0 0
  CHANNELS 6 Xposition Yposition Zposition Zrotation Yrotation Xrotation
  JOINT abdomen
  {
    OFFSET 0 20.6881 -0.73152
    CHANNELS 3 Zrotation Xrotation Yrotation
    JOINT chest
    {
      OFFSET 0 11.7043 -0.48768
      CHANNELS 3 Zrotation Xrotation Yrotation
      JOINT neck
      {
        OFFSET 0 22.1894 -2.19456
        CHANNELS 3 Zrotation Xrotation Yrotation
        JOINT head
        {
          OFFSET -0.24384 7.07133 1.2192
          CHANNELS 3 Zrotation Xrotation Yrotation
          JOINT leftEye
          {
            OFFSET 4.14528 8.04674 8.04672
            CHANNELS 3 Zrotation Xrotation Yrotation
            End Site
            {
              OFFSET 1 0 0
            }
          }
          JOINT rightEye
          {
            OFFSET -3.6576 8.04674 8.04672
            CHANNELS 3 Zrotation Xrotation Yrotation
            End Site
            {
              OFFSET 1 0 0
            }
          }
        }
      }
      JOINT rCollar
      {
        OFFSET -2.68224 19.2634 -4.8768
        CHANNELS 3 Zrotation Xrotation Yrotation
        JOINT rShldr
        {
          OFFSET -8.77824 -1.95073 1.46304
          CHANNELS 3 Zrotation Xrotation Yrotation
          JOINT rForeArm
          {
            OFFSET -28.1742 -1.7115 0.48768
            CHANNELS 3 Zrotation Xrotation Yrotation
            JOINT rHand
            {
              OFFSET -22.5879 0.773209 7.07136
              CHANNELS 3 Zrotation Xrotation Yrotation
              JOINT rThumb1
              {
                OFFSET -1.2192 -0.487915 3.41376
                CHANNELS 3 Zrotation Xrotation Yrotation
                JOINT rThumb2
                {
                  OFFSET -3.37035 -0.52449 3.41376
                  CHANNELS 3 Zrotation Xrotation Yrotation
                  End Site
                  {
                    OFFSET -1.78271 -1.18214 1.43049
                  }
                }
              }
              JOINT rIndex1
              {
                OFFSET -7.75947 0.938293 5.60832
                CHANNELS 3 Zrotation Xrotation Yrotation
                JOINT rIndex2
                {
                  OFFSET -2.54057 -0.884171 1.56538
                  CHANNELS 3 Zrotation Xrotation Yrotation
                  End Site
                  {
                    OFFSET -1.62519 -0.234802 1.16502
                  }
                }
              }
              JOINT rMid1
              {
                OFFSET -8.24714 1.18213 3.41376
                CHANNELS 3 Zrotation Xrotation Yrotation
                JOINT rMid2
                {
                  OFFSET -3.10165 -0.590103 1.0647
                  CHANNELS 3 Zrotation Xrotation Yrotation
                  End Site
                  {
                    OFFSET -2.48547 -0.328903 0.83742
                  }
                }
              }
              JOINT rRing1
              {
                OFFSET -8.82822 0.546677 1.51678
                CHANNELS 3 Zrotation Xrotation Yrotation
                JOINT rRing2
                {
                  OFFSET -2.60934 -0.819778 -0.0198488
                  CHANNELS 3 Zrotation Xrotation Yrotation
                  End Site
                  {
                    OFFSET -2.33842 -0.294052 0.168128
                  }
                }
              }
              JOINT rPinky1
              {
                OFFSET -8.27202 -0.0477905 -0.4584
                CHANNELS 3 Zrotation Xrotation Yrotation
                JOINT rPinky2
                {
                  OFFSET -1.82734 -0.647385 -0.700984
                  CHANNELS 3 Zrotation Xrotation Yrotation
                  End Site
                  {
                    OFFSET -1.69225 -0.51767 -0.607171
                  }
                }
              }
            }
          }
        }
      }
      JOINT lCollar
      {
        OFFSET 2.68224 19.2634 -4.8768
        CHANNELS 3 Zrotation Xrotation Yrotation
        JOINT lShldr
        {
          OFFSET 8.77824 -1.95073 1.46304
          CHANNELS 3 Zrotation Xrotation Yrotation
          JOINT lForeArm
          {
            OFFSET 28.1742 -1.7115 0.48768
            CHANNELS 3 Zrotation Xrotation Yrotation
            JOINT lHand
            {
              OFFSET 22.5879 0.773209 7.07136
              CHANNELS 3 Zrotation Xrotation Yrotation
              JOINT lThumb1
              {
                OFFSET 1.2192 -0.487915 3.41376
                CHANNELS 3 Zrotation Xrotation Yrotation
                JOINT lThumb2
                {
                  OFFSET 3.37035 -0.52449 3.41376
                  CHANNELS 3 Zrotation Xrotation Yrotation
                  End Site
                  {
                    OFFSET 1.78271 -1.18214 1.43049
                  }
                }
              }
              JOINT lIndex1
              {
                OFFSET 7.75947 0.938293 5.60832
                CHANNELS 3 Zrotation Xrotation Yrotation
                JOINT lIndex2
                {
                  OFFSET 2.54057 -0.884171 1.56538
                  CHANNELS 3 Zrotation Xrotation Yrotation
                  End Site
                  {
                    OFFSET 1.62519 -0.234802 1.16502
                  }
                }
              }
              JOINT lMid1
              {
                OFFSET 8.24714 1.18213 3.41376
                CHANNELS 3 Zrotation Xrotation Yrotation
                JOINT lMid2
                {
                  OFFSET 3.10165 -0.590103 1.0647
                  CHANNELS 3 Zrotation Xrotation Yrotation
                  End Site
                  {
                    OFFSET 2.48547 -0.328903 0.83742
                  }
                }
              }
              JOINT lRing1
              {
                OFFSET 8.82822 0.546677 1.51678
                CHANNELS 3 Zrotation Xrotation Yrotation
                JOINT lRing2
                {
                  OFFSET 2.60934 -0.819778 -0.0198488
                  CHANNELS 3 Zrotation Xrotation Yrotation
                  End Site
                  {
                    OFFSET 2.33842 -0.294052 0.168128
                  }
                }
              }
              JOINT lPinky1
              {
                OFFSET 8.27202 -0.0477905 -0.4584
                CHANNELS 3 Zrotation Xrotation Yrotation
                JOINT lPinky2
                {
                  OFFSET 1.82734 -0.647385 -0.700984
                  CHANNELS 3 Zrotation Xrotation Yrotation
                  End Site
                  {
                    OFFSET 1.69225 -0.51767 -0.607171
                  }
                }
              }
            }
          }
        }
      }
    }
  }
  JOINT rButtock
  {
    OFFSET -8.77824 4.35084 1.2192
    CHANNELS 3 Zrotation Xrotation Yrotation
    JOINT rThigh
    {
      OFFSET 0 -1.70687 -2.19456
      CHANNELS 3 Zrotation Xrotation Yrotation
      JOINT rShin
      {
        OFFSET 0 -36.8199 0.73152
        CHANNELS 3 Zrotation Xrotation Yrotation
        JOINT rFoot
        {
          OFFSET 0.73152 -45.1104 -5.12064
          CHANNELS 3 Zrotation Xrotation Yrotation
          End Site
          {
            OFFSET -1.1221 -3.69964 12.103
          }
        }
      }
    }
  }
  JOINT lButtock
  {
    OFFSET 8.77824 4.35084 1.2192
    CHANNELS 3 Zrotation Xrotation Yrotation
    JOINT lThigh
    {
      OFFSET 0 -1.70687 -2.19456
      CHANNELS 3 Zrotation Xrotation Yrotation
      JOINT lShin
      {
        OFFSET 0 -36.8199 0.73152
        CHANNELS 3 Zrotation Xrotation Yrotation
        JOINT lFoot
        {
          OFFSET -0.73152 -45.1104 -5.12064
          CHANNELS 3 Zrotation Xrotation Yrotation
          End Site
          {
            OFFSET 1.1221 -3.69964 12.103
          }
        }
      }
    }
  }
}
MOTION
Frames:	9
Frame Time:	0.00833333
-7.52422 82.6067 27.5029 -161.907 80.7195 197.674 0.661443 11.1227 9.10006 -2.05117 1.17819 2.73317 12.6598 8.18815 5.34313 -15.499 -10.026 7.79916 -0.0 0.0 0.0 -0.0 0.0 0.0 -7.06446e-15 3.54225e-13 1.30502e-13 80.0046 21.4729 9.36848 -15.588 -8.31004 28.8076 -0.492528 -19.5425 -2.85942 -1.91004e-09 -1.32309e-09 -3.3761e-10 -3.30558e-09 -2.28677e-09 -6.07365e-10 -1.91003e-09 -1.32309e-09 -3.37629e-10 7.73091 5.47488 0.417314 -1.91003e-09 -1.32309e-09 -3.37619e-10 2.90554 0.965183 0.102902 -1.91004e-09 -1.32309e-09 -3.3762e-10 10.2786 0.731801 0.0259123 -1.91004e-09 -1.32309e-09 -3.37616e-10 2.22167 -0.733487 -0.20892 -7.24861e-15 3.54243e-13 1.30254e-13 -77.4882 8.75094 4.2087 9.06774 -3.59381 -16.0645 0.49066 19.5072 -2.85382 -3.12579e-09 2.27777e-09 3.02459e-09 -5.35098e-09 3.97037e-09 5.27694e-09 -3.1258e-09 2.27777e-09 3.0246e-09 -7.73091 5.47488 -0.417314 -3.12579e-09 2.27777e-09 3.02459e-09 -2.90554 0.965183 -0.102902 -3.1258e-09 2.27777e-09 3.02459e-09 -10.2786 0.731801 -0.0259123 -3.12578e-09 2.27778e-09 3.02459e-09 -2.22167 -0.733487 0.20892 -2.03217e-16 0.0 -3.88251e-19 8.37621 7.1294 -2.26305 -0.126815 31.0553 0.763974 -0.61988 -3.22974 -0.451087 2.03217e-16 0.0 3.88251e-19 -6.92562 -27.8183 -13.5224 0.212762 33.4912 -0.679463 5.53397 -12.0345 17.5442
-5.8933 82.6681 27.0045 -165.164 81.0834 194.307 -0.928077 11.2042 8.95948 -1.93411 1.14969 2.62537 12.8551 8.30306 5.62449 -15.3712 -9.93091 8.37406 -0.0 0.0 0.0 -0.0 0.0 0.0 2.28891e-14 2.24406e-13 -4.57904e-15 80.0446 21.7262 8.7695 -15.2413 -8.00197 28.0852 -0.462953 -18.9957 -2.77271 -1.60063e-09 -7.01387e-10 -7.11546e-10 -2.76308e-09 -1.2095e-09 -1.25132e-09 -1.60062e-09 -7.01383e-10 -7.11563e-10 7.73091 5.47488 0.417314 -1.60062e-09 -7.01387e-10 -7.11553e-10 2.90554 0.965183 0.102902 -1.60062e-09 -7.01386e-10 -7.11555e-10 10.2786 0.731801 0.0259123 -1.60062e-09 -7.01386e-10 -7.11551e-10 2.22167 -0.733487 -0.20892 2.2705e-14 2.24423e-13 -4.805e-15 -77.4398 10.4833 3.8021 9.51093 -3.85648 -16.878 0.365061 17.216 -2.49238 -2.38396e-09 1.00202e-09 2.19533e-09 -4.08435e-09 1.75807e-09 3.83306e-09 -2.38397e-09 1.00202e-09 2.19534e-09 -7.73091 5.47488 -0.417314 -2.38395e-09 1.00202e-09 2.19533e-09 -2.90554 0.965183 -0.102902 -2.38396e-09 1.00202e-09 2.19533e-09 -10.2786 0.731801 -0.0259123 -2.38395e-09 1.00203e-09 2.19533e-09 -2.22167 -0.733487 0.20892 -2.03217e-16 0.0 -3.88251e-19 6.53565 3.85955 -2.79622 -0.243906 37.3316 0.816239 -0.517597 -0.805597 0.68584 2.03217e-16 0.0 3.88251e-19 -7.63022 -26.3333 -12.8266 0.212299 33.0983 -0.572518 5.45619 -12.2933 17.1557
-4.30181 82.7305 26.4642 -169.897 81.2971 189.394 -2.76228 11.4293 8.74236 -1.79878 1.08564 2.48546 12.9937 8.42536 5.93068 -15.2085 -9.91824 8.99665 -0.0 0.0 0.0 -0.0 0.0 0.0 2.81082e-14 -9.92498e-14 -1.40249e-13 80.0572 21.9357 8.17102 -14.8875 -7.69641 27.3516 -0.426853 -18.2849 -2.66117 -8.83456e-10 -3.35896e-11 -9.71728e-10 -1.51771e-09 -5.38312e-11 -1.69291e-09 -8.83454e-10 -3.35853e-11 -9.71742e-10 7.73091 5.47488 0.417314 -8.83454e-10 -3.35878e-11 -9.71731e-10 2.90554 0.965183 0.102902 -8.83454e-10 -3.35862e-11 -9.71734e-10 10.2786 0.731801 0.0259123 -8.83455e-10 -3.35859e-11 -9.71729e-10 2.22167 -0.733487 -0.20892 2.79478e-14 -9.92385e-14 -1.40441e-13 -77.3479 12.8012 3.32256 10.075 -4.19339 -17.9355 0.246004 14.4725 -2.07392 -1.1914e-09 -3.82001e-10 1.22154e-09 -2.03888e-09 -6.47261e-10 2.13299e-09 -1.19141e-09 -3.81998e-10 1.22156e-09 -7.73091 5.47488 -0.417314 -1.1914e-09 -3.82001e-10 1.22154e-09 -2.90554 0.965183 -0.102902 -1.19141e-09 -3.82e-10 1.22155e-09 -10.2786 0.731801 -0.0259123 -1.1914e-09 -3.81996e-10 1.22154e-09 -2.22167 -0.733487 0.20892 -2.03217e-16 0.0 -3.88251e-19 4.507 0.301658 -3.09736 -0.409125 43.8235 0.905193 -0.45592 1.78938 1.25644 2.03217e-16 0.0 3.88251e-19 -8.44643 -24.727 -11.6926 0.210828 32.5554 -0.456208 5.34542 -12.6377 16.6338
-2.71666 82.8087 25.8955 -175.593 81.3181 183.462 -4.57505 11.7201 8.4628 -1.645 1.01112 2.32832 13.076 8.54638 6.22216 -15.0187 -9.9444 9.59362 -0.0 0.0 0.0 -0.0 0.0 0.0 1.9109e-14 -4.2129e-13 -2.3596e-13 80.0524 22.1253 7.53944 -14.5604 -7.41868 26.6822 -0.392725 -17.5597 -2.54865 -1.37498e-10 4.96256e-10 -1.05153e-09 -2.25392e-10 8.62386e-10 -1.82185e-09 -1.37498e-10 4.9626e-10 -1.05154e-09 7.73091 5.47488 0.417314 -1.37497e-10 4.9626e-10 -1.05153e-09 2.90554 0.965183 0.102902 -1.37495e-10 4.96261e-10 -1.05153e-09 10.2786 0.731801 0.0259123 -1.37498e-10 4.96262e-10 -1.05153e-09 2.22167 -0.733487 -0.20892 1.89832e-14 -4.21285e-13 -2.36122e-13 -77.1918 15.3718 2.73469 10.6959 -4.57638 -19.114 0.15878 11.6773 -1.66133 -3.09265e-11 -1.46746e-09 3.26737e-10 -4.68716e-11 -2.53662e-09 5.69416e-10 -3.09363e-11 -1.46746e-09 3.26755e-10 -7.73091 5.47488 -0.417314 -3.09265e-11 -1.46746e-09 3.26742e-10 -2.90554 0.965183 -0.102902 -3.09308e-11 -1.46746e-09 3.26743e-10 -10.2786 0.731801 -0.0259123 -3.09223e-11 -1.46746e-09 3.26738e-10 -2.22167 -0.733487 0.20892 -2.03217e-16 0.0 -3.88251e-19 2.57367 -3.34677 -3.19567 -0.609444 50.01 1.03537 -0.41929 3.97435 1.20784 2.03217e-16 0.0 3.88251e-19 -9.33592 -23.0254 -10.5414 0.20732 31.9252 -0.349864 5.24757 -13.066 16.1146
-1.12206 82.8964 25.3173 -181.257 81.1225 177.544 -6.10141 11.9983 8.13499 -1.47229 0.951251 2.16876 13.1029 8.65764 6.45931 -14.8112 -9.96664 10.0913 -0.0 0.0 0.0 -0.0 0.0 0.0 6.40772e-15 -5.46261e-13 -2.51164e-13 80.042 22.3189 6.84065 -14.2962 -7.19595 26.152 -0.366731 -16.9696 -2.45795 2.58277e-10 7.04102e-10 -8.84321e-10 4.57963e-10 1.22132e-09 -1.52782e-09 2.58277e-10 7.04106e-10 -8.84328e-10 7.73091 5.47488 0.417314 2.58278e-10 7.04107e-10 -8.84318e-10 2.90554 0.965183 0.102902 2.58281e-10 7.04108e-10 -8.84321e-10 10.2786 0.731801 0.0259123 2.58276e-10 7.04109e-10 -8.84315e-10 2.22167 -0.733487 -0.20892 6.31491e-15 -5.46261e-13 -2.51314e-13 -76.9545 17.8606 1.99874 11.3142 -4.97918 -20.2902 0.105684 9.23187 -1.30891 6.14671e-10 -1.84752e-09 -2.65586e-10 1.05935e-09 -3.20102e-09 -4.64941e-10 6.14661e-10 -1.84752e-09 -2.65567e-10 -7.73091 5.47488 -0.417314 6.14671e-10 -1.84752e-09 -2.6558e-10 -2.90554 0.965183 -0.102902 6.14667e-10 -1.84752e-09 -2.6558e-10 -10.2786 0.731801 -0.0259123 6.14674e-10 -1.84752e-09 -2.65586e-10 -2.22167 -0.733487 0.20892 -2.03217e-16 0.0 -3.88251e-19 1.01776 -6.88876 -3.1134 -0.825142 55.3702 1.20489 -0.399924 5.16909 0.480189 2.03217e-16 0.0 3.88251e-19 -10.2042 -21.275 -9.76991 0.199195 31.2704 -0.271956 5.21214 -13.5766 15.7353
0.487637 82.9854 24.7495 -185.837 80.728 172.71 -7.28986 12.2683 7.73262 -1.27032 0.91907 2.00011 13.0501 8.75961 6.6372 -14.5844 -10.001 10.4814 -0.0 0.0 0.0 -0.0 0.0 0.0 -1.75096e-14 -3.31234e-13 -1.18724e-13 79.9955 22.5752 6.06409 -14.1237 -7.05175 25.8095 -0.34852 -16.5475 -2.39334 8.40165e-11 3.55917e-10 -2.71913e-10 1.49431e-10 6.17924e-10 -4.70708e-10 8.40169e-11 3.55921e-10 -2.71918e-10 7.73091 5.47488 0.417314 8.40168e-11 3.55922e-10 -2.71909e-10 2.90554 0.965183 0.102902 8.40207e-11 3.55923e-10 -2.71911e-10 10.2786 0.731801 0.0259123 8.40142e-11 3.55923e-10 -2.71905e-10 2.22167 -0.733487 -0.20892 -1.75646e-14 -3.31236e-13 -1.18889e-13 -76.6105 20.2881 1.07373 11.9345 -5.40723 -21.4741 0.0686116 7.21173 -1.02055 4.39311e-10 -1.04648e-09 -3.94498e-10 7.52375e-10 -1.81501e-09 -6.88743e-10 4.39303e-10 -1.04648e-09 -3.94483e-10 -7.73091 5.47488 -0.417314 4.39311e-10 -1.04649e-09 -3.94492e-10 -2.90554 0.965183 -0.102902 4.39307e-10 -1.04649e-09 -3.94495e-10 -10.2786 0.731801 -0.0259123 4.39314e-10 -1.04648e-09 -3.94501e-10 -2.22167 -0.733487 0.20892 -2.03217e-16 0.0 -3.88251e-19 -0.0335184 -10.3529 -2.82888 -1.06638 59.9118 1.42859 -0.415955 5.0059 -1.22341 2.03217e-16 0.0 3.88251e-19 -11.0203 -19.468 -9.49869 0.181901 30.5719 -0.224517 5.26512 -14.2116 15.5433
2.11365 83.0741 24.2073 -188.796 80.2335 169.53 -8.27293 12.5632 7.2577 -1.04264 0.899074 1.81798 12.9257 8.85608 6.775 -14.3339 -10.0615 10.7995 -0.0 0.0 0.0 -0.0 0.0 0.0 -5.48123e-14 8.92801e-14 1.2096e-13 79.9209 22.8628 5.22719 -14.022 -6.96943 25.6042 -0.334136 -16.2161 -2.34266 -4.18564e-10 -3.88489e-10 6.9002e-10 -7.31828e-10 -6.71536e-10 1.18709e-09 -4.18562e-10 -3.88485e-10 6.90017e-10 7.73091 5.47488 0.417314 -4.18564e-10 -3.88485e-10 6.90023e-10 2.90554 0.965183 0.102902 -4.18559e-10 -3.88485e-10 6.90023e-10 10.2786 0.731801 0.0259123 -4.18567e-10 -3.88486e-10 6.9003e-10 2.22167 -0.733487 -0.20892 -5.48211e-14 8.9278e-14 1.20762e-13 -76.1322 22.7913 -0.0295259 12.5754 -5.86651 -22.7187 0.0384415 5.41408 -0.764463 -2.40401e-10 5.96271e-10 -2.12977e-10 -4.22073e-10 1.03114e-09 -3.70304e-10 -2.40409e-10 5.96273e-10 -2.12969e-10 -7.73091 5.47488 -0.417314 -2.40401e-10 5.96271e-10 -2.12971e-10 -2.90554 0.965183 -0.102902 -2.40407e-10 5.9627e-10 -2.12976e-10 -10.2786 0.731801 -0.0259123 -2.40399e-10 5.96272e-10 -2.12984e-10 -2.22167 -0.733487 0.20892 -2.03217e-16 0.0 -3.88251e-19 -0.679908 -13.8199 -2.32894 -1.36113 63.8634 1.72235 -0.532855 3.86016 -3.77202 2.03217e-16 0.0 3.88251e-19 -11.7928 -17.5972 -9.49474 0.156965 29.8082 -0.198048 5.3788 -14.9575 15.4641
3.76107 83.1521 23.6988 -190.308 79.7266 167.846 -9.06464 12.8478 6.76717 -0.809441 0.873554 1.64072 12.78 8.94359 6.86919 -14.0676 -10.1032 11.0376 -0.0 0.0 0.0 -0.0 0.0 0.0 -8.69668e-14 4.94574e-13 3.47128e-13 79.8838 23.0692 4.3393 -13.9534 -6.91589 25.4625 -0.323 -15.9595 -2.30347 -9.36081e-10 -1.1224e-09 1.6273e-09 -1.63862e-09 -1.94288e-09 2.80209e-09 -9.36078e-10 -1.1224e-09 1.6273e-09 7.73091 5.47488 0.417314 -9.36082e-10 -1.1224e-09 1.6273e-09 2.90554 0.965183 0.102902 -9.36076e-10 -1.1224e-09 1.6273e-09 10.2786 0.731801 0.0259123 -9.36086e-10 -1.1224e-09 1.62731e-09 2.22167 -0.733487 -0.20892 -8.69382e-14 4.94573e-13 3.46895e-13 -75.5207 25.2091 -1.27163 13.2055 -6.3348 -23.9634 0.0169988 3.82349 -0.53845 -9.73242e-10 2.26495e-09 3.16199e-11 -1.68661e-09 3.9229e-09 5.85836e-11 -9.73249e-10 2.26495e-09 3.16208e-11 -7.73091 5.47488 -0.417314 -9.73241e-10 2.26495e-09 3.16248e-11 -2.90554 0.965183 -0.102902 -9.7325e-10 2.26495e-09 3.16177e-11 -10.2786 0.731801 -0.0259123 -9.73241e-10 2.26495e-09 3.16089e-11 -2.22167 -0.733487 0.20892 -2.03217e-16 0.0 -3.88251e-19 -0.992654 -17.1691 -1.64073 -1.68275 67.036 2.05434 -0.825992 2.27466 -6.59048 2.03217e-16 0.0 3.88251e-19 -12.457 -15.7188 -9.6129 0.129521 29.0389 -0.192967 5.52571 -15.7292 15.4519
5.4312 83.2081 23.2226 -190.861 79.259 167.171 -9.68133 13.0869 6.31844 -0.591084 0.824795 1.48667 12.6633 9.01869 6.91621 -13.7941 -10.0813 11.1875 -0.0 0.0 0.0 -0.0 0.0 0.0 -9.544e-14 6.63941e-13 4.39016e-13 79.9417 23.0816 3.41275 -13.8791 -6.85729 25.3111 -0.314728 -15.7618 -2.2734 -1.15515e-09 -1.43911e-09 2.16575e-09 -2.02374e-09 -2.49194e-09 3.73079e-09 -1.15515e-09 -1.43911e-09 2.16575e-09 7.73091 5.47488 0.417314 -1.15515e-09 -1.43911e-09 2.16575e-09 2.90554 0.965183 0.102902 -1.15515e-09 -1.43911e-09 2.16576e-09 10.2786 0.731801 0.0259123 -1.15516e-09 -1.43911e-09 2.16576e-09 2.22167 -0.733487 -0.20892 -9.53996e-14 6.63941e-13 4.38767e-13 -74.8002 27.3806 -2.60457 13.7972 -6.7921 -25.1472 0.00721454 2.42446 -0.340941 -1.30799e-09 3.14377e-09 9.19339e-11 -2.26387e-09 5.44571e-09 1.66131e-10 -1.30799e-09 3.14377e-09 9.19308e-11 -7.73091 5.47488 -0.417314 -1.30799e-09 3.14377e-09 9.19371e-11 -2.90554 0.965183 -0.102902 -1.308e-09 3.14377e-09 9.193e-11 -10.2786 0.731801 -0.0259123 -1.30799e-09 3.14377e-09 9.19212e-11 -2.22167 -0.733487 0.20892 -2.03217e-16 0.0 -3.88251e-19 -1.05755 -20.2782 -0.790731 -1.96267 69.2414 2.35255 -1.23837 0.796701 -9.11444 2.03217e-16 0.0 3.88251e-19 -12.9677 -13.8857 -9.71346 0.104589 28.3234 -0.209648 5.67648 -16.4419 15.4595
